<svg width="24" height="24" viewBox="0 0 24 24" fill="none" xmlns="http://www.w3.org/2000/svg">
<path d="M17.2238 3.15032L8.28017 5.39297C6.9742 5.71721 5.65023 7.04119 5.32599 8.34715L3.08333 17.2907C2.40784 19.9927 4.06506 21.659 6.77606 20.9835L15.7197 18.7498C17.0166 18.4256 18.3496 17.0926 18.6738 15.7956L20.9165 6.84304C21.592 4.14105 19.9258 2.47482 17.2238 3.15032Z" stroke="#292D32" stroke-width="1.5" stroke-linecap="round" stroke-linejoin="round"/>
<path d="M12 15.2197C13.741 15.2197 15.1523 13.8083 15.1523 12.0674C15.1523 10.3264 13.741 8.91504 12 8.91504C10.259 8.91504 8.84766 10.3264 8.84766 12.0674C8.84766 13.8083 10.259 15.2197 12 15.2197Z" stroke="#292D32" stroke-width="1.5" stroke-linecap="round" stroke-linejoin="round"/>
</svg>
