<svg width="24" height="24" viewBox="0 0 24 24" fill="none" xmlns="http://www.w3.org/2000/svg">
<path d="M2.29004 7.44209V17.1721C2.29004 19.0721 3.64004 19.8521 5.28004 18.9121L7.63004 17.5721C8.14004 17.2821 8.99004 17.2521 9.52004 17.5221L14.77 20.1521C15.3 20.4121 16.15 20.3921 16.66 20.1021L20.99 17.6221C21.54 17.3021 22 16.5221 22 15.8821V6.15208C22 4.25208 20.65 3.47208 19.01 4.41208L16.66 5.75209C16.15 6.04209 15.3 6.07208 14.77 5.80208L9.52004 3.18208C8.99004 2.92208 8.14004 2.94208 7.63004 3.23208L3.30004 5.71209C2.74004 6.03209 2.29004 6.81209 2.29004 7.44209Z" stroke="#292D32" stroke-width="1.5" stroke-linecap="round" stroke-linejoin="round"/>
<path d="M8.56006 3.66211V16.6621" stroke="#292D32" stroke-width="1.5" stroke-linecap="round" stroke-linejoin="round"/>
<path d="M15.73 6.28223V19.6622" stroke="#292D32" stroke-width="1.5" stroke-linecap="round" stroke-linejoin="round"/>
</svg>
